# xmcd CD database file
#
# Track frame offsets:
#	150
#	12453
#	20952
#	36497
#	49049
#	62902
#	76166
#	90746
#	105657
#	118192
#	129375
#	140483
#	151887
#	163093
#	174698
#	187343
#
# Disc length: 2631 seconds
#
# Revision: 1
# Processed by: cddbd v1.5.1PL2 Copyright (c) Steve Scherf et al.
# Submitted via: CDex 1.51
#
DISCID=e50a4510
DTITLE=variés - Les étoiles du negro spiritual [CD2)
DYEAR=1998
DGENRE=Blues
TTITLE0=Paul Robeson - Nobody knows the trouble I've seen
TTITLE1=Paul Robeson - Joshua fit the battle of Jericho
TTITLE2=Paul Robeson - Swing low, sweet chariot
TTITLE3=Paul Robeson - I got a home in dat rock
TTITLE4=Paul Robeson - No more auction block
TTITLE5=Paul Robeson - Hear de lam's a cryin'
TTITLE6=Paul Robeson - I'll hear de trumpet
TTITLE7=Paul Robeson - Poor wayfarin' stranger
TTITLE8=Paul Robeson - Dere's a man goin' round
TTITLE9=Paul Robeson - Git on board, little Chillun
TTITLE10=Paul Robeson - By 'N' by
TTITLE11=Paul Robeson - Sometimes I feel like a motherless child
TTITLE12=Paul Robeson - John Henry
TTITLE13=Paul Robeson - Water boy
TTITLE14=Paul Robeson - Go down, moses
TTITLE15=Paul Robeson - Balm in gilead
EXTD=YEAR: 1998
EXTT0=
EXTT1=
EXTT2=
EXTT3=
EXTT4=
EXTT5=
EXTT6=
EXTT7=
EXTT8=
EXTT9=
EXTT10=
EXTT11=
EXTT12=
EXTT13=
EXTT14=
EXTT15=
PLAYORDER=
